<?xml version="1.0" encoding="UTF-8"?>
<!DOCTYPE svg PUBLIC "-//W3C//DTD SVG 1.1//EN" "http://www.w3.org/Graphics/SVG/1.1/DTD/svg11.dtd">
<svg xmlns="http://www.w3.org/2000/svg" version="1.1" width="50" height="50" style="shape-rendering: geometricprecision; text-rendering: geometricprecision; image-rendering: optimizequality; fill-rule: evenodd; clip-rule: evenodd" xmlns:xlink="http://www.w3.org/1999/xlink">
<g><path style="opacity: .673" fill="#efb319" d="M 39.5,4.5 C 43.1612,4.35012 44.1612,5.85012 42.5,9C 39.8882,9.74137 38.2215,8.74137 37.5,6C 38.4158,5.72158 39.0825,5.22158 39.5,4.5 Z"></path></g>
<g><path style="opacity: .981" fill="#cee0f3" d="M 39.5,36.5 C 38.6618,36.8417 38.3284,37.5084 38.5,38.5C 29.6586,44.9147 20.6586,45.0813 11.5,39C 10.3353,37.0083 9.00197,35.175 7.5,33.5C 8.98952,31.0517 8.32285,29.3851 5.5,28.5C 5.15025,23.9639 5.81691,19.6306 7.5,15.5C 7.5,15.1667 7.5,14.8333 7.5,14.5C 16.0913,4.40313 26.0913,2.90313 37.5,10C 44.6222,18.382 45.2889,27.2154 39.5,36.5 Z"></path></g>
<g><path style="opacity: .294" fill="#77a2ce" d="M 41.5,10.5 C 42.675,10.281 43.675,10.6143 44.5,11.5C 42.9483,12.7979 41.9483,12.4646 41.5,10.5 Z"></path></g>
<g><path style="opacity: .629" fill="#76a3ce" d="M 7.5,14.5 C 7.5,14.8333 7.5,15.1667 7.5,15.5C 6.5,15.5 5.5,15.5 4.5,15.5C 4.5,14.5 4.5,13.5 4.5,12.5C 6.17876,12.2852 7.17876,12.9519 7.5,14.5 Z"></path></g>
<g><path style="opacity: 1" fill="#3c76ba" d="M 32.5,17.5 C 30.5,17.5 28.5,17.5 26.5,17.5C 26.5,23.5 26.5,29.5 26.5,35.5C 25.1667,35.5 23.8333,35.5 22.5,35.5C 22.5,29.5 22.5,23.5 22.5,17.5C 20.5,17.5 18.5,17.5 16.5,17.5C 15.1991,16.1155 15.1991,14.6155 16.5,13C 21.8333,12.3333 27.1667,12.3333 32.5,13C 33.8009,14.6155 33.8009,16.1155 32.5,17.5 Z"></path></g>
<g><path style="opacity: 1" fill="#5b5a6b" d="M 16.5,17.5 C 18.5,17.5 20.5,17.5 22.5,17.5C 22.5,23.5 22.5,29.5 22.5,35.5C 23.8333,35.5 25.1667,35.5 26.5,35.5C 26.5,29.5 26.5,23.5 26.5,17.5C 28.5,17.5 30.5,17.5 32.5,17.5C 31.0813,18.4511 29.4147,18.7845 27.5,18.5C 27.5,24.5 27.5,30.5 27.5,36.5C 25.5,36.5 23.5,36.5 21.5,36.5C 21.5,30.5 21.5,24.5 21.5,18.5C 19.5853,18.7845 17.9187,18.4511 16.5,17.5 Z"></path></g>
<g><path style="opacity: .838" fill="#facc59" d="M 5.5,28.5 C 8.32285,29.3851 8.98952,31.0517 7.5,33.5C 4.49693,32.83 3.83026,31.1633 5.5,28.5 Z"></path></g>
<g><path style="opacity: .512" fill="#facc58" d="M 39.5,36.5 C 40.3764,36.3691 41.0431,36.7025 41.5,37.5C 40.675,38.3857 39.675,38.719 38.5,38.5C 38.3284,37.5084 38.6618,36.8417 39.5,36.5 Z"></path></g>
<g><path style="opacity: .629" fill="#76a3ce" d="M 10.5,41.5 C 11.5,41.5 12.5,41.5 13.5,41.5C 13.5,42.5 13.5,43.5 13.5,44.5C 12.5,44.5 11.5,44.5 10.5,44.5C 10.5,43.5 10.5,42.5 10.5,41.5 Z"></path></g>
</svg>
