<?xml version="1.0" encoding="UTF-8"?>
<!DOCTYPE svg PUBLIC "-//W3C//DTD SVG 1.1//EN" "http://www.w3.org/Graphics/SVG/1.1/DTD/svg11.dtd">
<svg xmlns="http://www.w3.org/2000/svg" version="1.1" width="60" height="60" style="shape-rendering: geometricprecision; text-rendering: geometricprecision; image-rendering: optimizequality; fill-rule: evenodd; clip-rule: evenodd" xmlns:xlink="http://www.w3.org/1999/xlink">
<g><path style="opacity: .918" fill="#464c54" d="M 43.5,30.5 C 41.5696,29.2365 39.9029,27.5699 38.5,25.5C 30.2992,21.2832 24.2992,23.2832 20.5,31.5C 19.0047,31.5852 18.0047,30.9185 17.5,29.5C 23.1273,18.9541 31.1273,16.7874 41.5,23C 44.1701,25.1828 44.8368,27.6828 43.5,30.5 Z"></path></g>
<g><path style="opacity: .935" fill="#766b62" d="M 43.5,30.5 C 36.0182,31.492 28.3516,31.8254 20.5,31.5C 24.2992,23.2832 30.2992,21.2832 38.5,25.5C 39.9029,27.5699 41.5696,29.2365 43.5,30.5 Z"></path></g>
<g><path style="opacity: .855" fill="#464d56" d="M 59.5,63.5 C 40.8333,63.5 22.1667,63.5 3.5,63.5C 3.5,62.1667 3.5,60.8333 3.5,59.5C 4.97782,59.762 6.31116,59.4287 7.5,58.5C 5.91288,52.2316 4.57954,45.8983 3.5,39.5C 3.38977,37.626 4.05644,36.126 5.5,35C 22.8333,34.3333 40.1667,34.3333 57.5,35C 58,35.5 58.5,36 59,36.5C 58.4248,44.2183 57.2581,51.8849 55.5,59.5C 56.8333,59.5 58.1667,59.5 59.5,59.5C 59.5,60.8333 59.5,62.1667 59.5,63.5 Z"></path></g>
<g><path style="opacity: 1" fill="#e1e1e4" d="M 7.5,38.5 C 20.5,38.5 33.5,38.5 46.5,38.5C 46.404,44.198 45.904,49.8646 45,55.5C 44.5,56 44,56.5 43.5,57C 33.1035,57.3027 22.7702,58.1361 12.5,59.5C 11.8826,59.3893 11.3826,59.056 11,58.5C 9.76631,51.833 8.59964,45.1663 7.5,38.5 Z"></path></g>
<g><path style="opacity: 1" fill="#a4a9ad" d="M 7.5,38.5 C 23.3246,37.5036 39.3246,37.1703 55.5,37.5C 54.7744,45.305 53.1077,52.805 50.5,60C 37.6599,60.8267 24.9933,60.66 12.5,59.5C 22.7702,58.1361 33.1035,57.3027 43.5,57C 44,56.5 44.5,56 45,55.5C 45.904,49.8646 46.404,44.198 46.5,38.5C 33.5,38.5 20.5,38.5 7.5,38.5 Z"></path></g>
<g><path style="opacity: 1" fill="#515860" d="M 29.5,43.5 C 36.263,43.5472 38.263,46.7139 35.5,53C 28.1364,55.7283 25.3031,53.2283 27,45.5C 27.9947,44.9341 28.828,44.2674 29.5,43.5 Z"></path></g>
<g><path style="opacity: 1" fill="#f7f7f7" d="M 30.5,46.5 C 33.0838,47.0483 34.0838,48.715 33.5,51.5C 29.7162,51.4747 28.7162,49.8081 30.5,46.5 Z"></path></g>
</svg>
