<?xml version="1.0" encoding="UTF-8"?>
<!DOCTYPE svg PUBLIC "-//W3C//DTD SVG 1.1//EN" "http://www.w3.org/Graphics/SVG/1.1/DTD/svg11.dtd">
<svg xmlns="http://www.w3.org/2000/svg" version="1.1" width="48px" height="48px" style="shape-rendering: geometricprecision; text-rendering: geometricprecision; image-rendering: optimizequality; fill-rule: evenodd; clip-rule: evenodd" xmlns:xlink="http://www.w3.org/1999/xlink">
<g><path style="opacity: .757" fill="#f06193" d="M 18.5,22.5 C 19.5,22.5 20.5,22.5 21.5,22.5C 23.0703,27.4344 24.4037,27.4344 25.5,22.5C 26.6888,21.5713 28.0222,21.238 29.5,21.5C 29.3505,22.552 29.5172,23.552 30,24.5C 30.5717,21.293 32.405,19.6263 35.5,19.5C 34.9478,21.3307 34.9478,22.9974 35.5,24.5C 38.0589,24.387 40.7256,24.887 43.5,26C 46.1283,28.585 46.1283,31.085 43.5,33.5C 43.3306,31.8827 42.9972,30.216 42.5,28.5C 40.5914,27.6518 38.5914,27.3184 36.5,27.5C 37.0352,30.2385 36.0352,32.0718 33.5,33C 31.1526,33.4361 28.8193,33.9361 26.5,34.5C 25.3527,34.1822 24.5194,33.5156 24,32.5C 23.221,33.7282 22.221,34.7282 21,35.5C 18.9906,35.0051 16.8239,35.0051 14.5,35.5C 14.6495,34.448 14.4828,33.448 14,32.5C 12.6019,38.6986 8.93527,40.6986 3,38.5C 2.19394,33.9402 4.02727,30.7735 8.5,29C 0.43622,24.5498 -0.56378,18.8831 5.5,12C 12.7357,6.3456 20.569,5.17893 29,8.5C 29.7901,11.634 29.4568,14.634 28,17.5C 25.0926,19.8683 21.9259,21.535 18.5,22.5 Z M 18.5,22.5 C 16.5187,24.3031 14.352,25.9697 12,27.5C 9.81528,26.0716 7.81528,24.4049 6,22.5C 5.24456,19.5027 6.07789,17.0027 8.5,15C 13.1857,11.1635 18.519,9.49684 24.5,10C 26.8155,12.4755 26.4822,14.8089 23.5,17C 19.6102,19.253 15.6102,20.0864 11.5,19.5C 13.2038,21.8493 15.5371,22.8493 18.5,22.5 Z M 31.5,26.5 C 32.7125,27.4971 32.5458,28.4971 31,29.5C 30.5304,28.4232 30.6971,27.4232 31.5,26.5 Z M 25.5,30.5 C 25.5173,28.9719 26.184,28.4719 27.5,29C 26.9558,29.7172 26.2891,30.2172 25.5,30.5 Z M 9.5,31.5 C 10.9346,33.9715 10.1013,35.6382 7,36.5C 7.05789,34.5646 7.89122,32.8979 9.5,31.5 Z"></path></g>
</svg>
