<?xml version="1.0" encoding="UTF-8"?>
<!DOCTYPE svg PUBLIC "-//W3C//DTD SVG 1.1//EN" "http://www.w3.org/Graphics/SVG/1.1/DTD/svg11.dtd">
<svg xmlns="http://www.w3.org/2000/svg" version="1.1" width="48px" height="48px" style="shape-rendering: geometricprecision; text-rendering: geometricprecision; image-rendering: optimizequality; fill-rule: evenodd; clip-rule: evenodd" xmlns:xlink="http://www.w3.org/1999/xlink">
<g><path style="opacity: .909" fill="#21a365" d="M 21.5,1.5 C 22.8734,1.34332 24.2068,1.50999 25.5,2C 31.0816,5.04031 36.5816,8.20698 42,11.5C 42.6667,19.5 42.6667,27.5 42,35.5C 36.5816,38.793 31.0816,41.9597 25.5,45C 21.554,45.3656 18.2207,44.0323 15.5,41C 18.2618,38.9814 20.9285,39.148 23.5,41.5C 28.5,38.6667 33.5,35.8333 38.5,33C 39.642,26.9156 39.8087,20.7489 39,14.5C 33.9152,11.3738 28.7486,8.37376 23.5,5.5C 18.2514,8.37376 13.0848,11.3738 8,14.5C 7.33333,20.5 7.33333,26.5 8,32.5C 9.75329,33.627 11.5866,34.627 13.5,35.5C 14.1924,34.9747 14.6924,34.3081 15,33.5C 15.4995,27.5092 15.6662,21.5092 15.5,15.5C 16.8333,15.5 18.1667,15.5 19.5,15.5C 19.5,18.8333 19.5,22.1667 19.5,25.5C 22.478,26.6615 25.478,27.9948 28.5,29.5C 30.1073,29.363 31.4406,28.6964 32.5,27.5C 28.7563,26.0093 24.923,24.676 21,23.5C 18.8266,17.006 21.1599,14.006 28,14.5C 32.3187,14.4084 35.152,16.4084 36.5,20.5C 35.8333,20.8333 35.1667,21.1667 34.5,21.5C 32.3686,20.0369 30.0353,19.0369 27.5,18.5C 26.5,18.8333 25.5,19.1667 24.5,19.5C 24.6667,19.8333 24.8333,20.1667 25,20.5C 28.1468,21.2776 31.3135,22.1109 34.5,23C 37.2994,26.3388 36.9661,29.3388 33.5,32C 29.8333,32.6667 26.1667,32.6667 22.5,32C 21.6667,31.1667 20.8333,30.3333 20,29.5C 18.7125,40.2498 13.7125,42.2498 5,35.5C 4.33333,27.5 4.33333,19.5 5,11.5C 10.6468,8.26662 16.1468,4.93329 21.5,1.5 Z"></path></g>
</svg>
