<?xml version="1.0" encoding="UTF-8"?>
<!DOCTYPE svg PUBLIC "-//W3C//DTD SVG 1.1//EN" "http://www.w3.org/Graphics/SVG/1.1/DTD/svg11.dtd">
<svg xmlns="http://www.w3.org/2000/svg" version="1.1" width="48px" height="48px" style="shape-rendering: geometricprecision; text-rendering: geometricprecision; image-rendering: optimizequality; fill-rule: evenodd; clip-rule: evenodd" xmlns:xlink="http://www.w3.org/1999/xlink">
<g><path style="opacity: .968" fill="#9ca5ae" d="M 6.5,6.5 C 18.5,6.5 30.5,6.5 42.5,6.5C 42.5,15.8333 42.5,25.1667 42.5,34.5C 39.5,34.5 36.5,34.5 33.5,34.5C 32.5,34.5 31.5,34.5 30.5,34.5C 29.791,33.596 28.791,33.2627 27.5,33.5C 27.5,33.1667 27.5,32.8333 27.5,32.5C 31.8333,32.5 36.1667,32.5 40.5,32.5C 40.5,29.5 40.5,26.5 40.5,23.5C 40.5,20.5 40.5,17.5 40.5,14.5C 40.5,12.5 40.5,10.5 40.5,8.5C 36.1667,8.5 31.8333,8.5 27.5,8.5C 20.5,8.5 13.5,8.5 6.5,8.5C 6.5,7.83333 6.5,7.16667 6.5,6.5 Z"></path></g>
<g><path style="opacity: 1" fill="#298df7" d="M 6.5,8.5 C 13.5,8.5 20.5,8.5 27.5,8.5C 25.7392,9.31271 24.0725,10.3127 22.5,11.5C 20.2188,11.0773 18.5521,11.744 17.5,13.5C 17.5,14.1667 17.1667,14.5 16.5,14.5C 12.8564,15.6551 9.52311,17.3218 6.5,19.5C 6.5,15.8333 6.5,12.1667 6.5,8.5 Z"></path></g>
<g><path style="opacity: 1" fill="#937257" d="M 22.5,11.5 C 23.791,11.2627 24.791,11.596 25.5,12.5C 22.7212,12.2786 20.0545,12.612 17.5,13.5C 18.5521,11.744 20.2188,11.0773 22.5,11.5 Z"></path></g>
<g><path style="opacity: 1" fill="#2da4e9" d="M 27.5,8.5 C 31.8333,8.5 36.1667,8.5 40.5,8.5C 40.5,10.5 40.5,12.5 40.5,14.5C 37.3915,14.2641 34.3915,14.5975 31.5,15.5C 30.609,14.8902 29.609,14.5569 28.5,14.5C 28.0269,13.0937 27.0269,12.427 25.5,12.5C 24.791,11.596 23.791,11.2627 22.5,11.5C 24.0725,10.3127 25.7392,9.31271 27.5,8.5 Z"></path></g>
<g><path style="opacity: 1" fill="#bd6218" d="M 25.5,12.5 C 27.0269,12.427 28.0269,13.0937 28.5,14.5C 24.3707,16.8795 20.0374,18.8795 15.5,20.5C 15.3253,18.3792 15.6586,16.3792 16.5,14.5C 17.1667,14.5 17.5,14.1667 17.5,13.5C 20.0545,12.612 22.7212,12.2786 25.5,12.5 Z"></path></g>
<g><path style="opacity: 1" fill="#ba6019" d="M 28.5,14.5 C 29.609,14.5569 30.609,14.8902 31.5,15.5C 31.5,16.1667 31.5,16.8333 31.5,17.5C 26.6065,19.7806 21.6065,21.7806 16.5,23.5C 16.5,24.8333 16.5,26.1667 16.5,27.5C 14.9519,27.1788 14.2852,26.1788 14.5,24.5C 15.4345,23.4324 15.7678,22.099 15.5,20.5C 20.0374,18.8795 24.3707,16.8795 28.5,14.5 Z"></path></g>
<g><path style="opacity: 1" fill="#b85716" d="M 31.5,17.5 C 31.5,19.8333 31.5,22.1667 31.5,24.5C 31.7373,25.791 31.404,26.791 30.5,27.5C 30.6621,25.4727 30.4955,23.4727 30,21.5C 25.5482,23.6433 21.0482,25.6433 16.5,27.5C 16.5,26.1667 16.5,24.8333 16.5,23.5C 21.6065,21.7806 26.6065,19.7806 31.5,17.5 Z"></path></g>
<g><path style="opacity: 1" fill="#27bddf" d="M 40.5,14.5 C 40.5,17.5 40.5,20.5 40.5,23.5C 37.5176,23.9629 34.5176,24.2962 31.5,24.5C 31.5,22.1667 31.5,19.8333 31.5,17.5C 31.5,16.8333 31.5,16.1667 31.5,15.5C 34.3915,14.5975 37.3915,14.2641 40.5,14.5 Z"></path></g>
<g><path style="opacity: 1" fill="#2aa5ea" d="M 16.5,14.5 C 15.6586,16.3792 15.3253,18.3792 15.5,20.5C 15.7678,22.099 15.4345,23.4324 14.5,24.5C 11.5691,26.0908 8.90241,28.0908 6.5,30.5C 6.5,26.8333 6.5,23.1667 6.5,19.5C 9.52311,17.3218 12.8564,15.6551 16.5,14.5 Z"></path></g>
<g><path style="opacity: 1" fill="#2cb5e2" d="M 14.5,24.5 C 14.2852,26.1788 14.9519,27.1788 16.5,27.5C 17.075,29.4113 18.075,31.078 19.5,32.5C 14.706,33.0969 10.3727,32.4302 6.5,30.5C 8.90241,28.0908 11.5691,26.0908 14.5,24.5 Z"></path></g>
<g><path style="opacity: .967" fill="#8f979f" d="M 6.5,6.5 C 6.5,7.16667 6.5,7.83333 6.5,8.5C 6.5,12.1667 6.5,15.8333 6.5,19.5C 6.5,23.1667 6.5,26.8333 6.5,30.5C 10.3727,32.4302 14.706,33.0969 19.5,32.5C 19.5,32.8333 19.5,33.1667 19.5,33.5C 17.4352,33.5172 15.4352,33.8505 13.5,34.5C 10.5,34.5 7.5,34.5 4.5,34.5C 3.86109,24.7734 4.52775,15.4401 6.5,6.5 Z"></path></g>
<g><path style="opacity: 1" fill="#b34c16" d="M 30.5,27.5 C 29.925,29.4113 28.925,31.078 27.5,32.5C 24.8333,33.8333 22.1667,33.8333 19.5,32.5C 18.075,31.078 17.075,29.4113 16.5,27.5C 21.0482,25.6433 25.5482,23.6433 30,21.5C 30.4955,23.4727 30.6621,25.4727 30.5,27.5 Z"></path></g>
<g><path style="opacity: 1" fill="#2dcdd6" d="M 40.5,23.5 C 40.5,26.5 40.5,29.5 40.5,32.5C 36.1667,32.5 31.8333,32.5 27.5,32.5C 28.925,31.078 29.925,29.4113 30.5,27.5C 31.404,26.791 31.7373,25.791 31.5,24.5C 34.5176,24.2962 37.5176,23.9629 40.5,23.5 Z"></path></g>
<g><path style="opacity: .972" fill="#0878c9" d="M 19.5,33.5 C 19.8333,34.1667 20.1667,34.8333 20.5,35.5C 18.9092,38.4309 16.9092,41.0976 14.5,43.5C 13.1667,43.5 11.8333,43.5 10.5,43.5C 9.92376,39.8875 10.9238,36.8875 13.5,34.5C 15.4352,33.8505 17.4352,33.5172 19.5,33.5 Z"></path></g>
<g><path style="opacity: 1" fill="#d39f22" d="M 19.5,32.5 C 22.1667,33.8333 24.8333,33.8333 27.5,32.5C 27.5,32.8333 27.5,33.1667 27.5,33.5C 27.3893,34.1174 27.056,34.6174 26.5,35C 24.5273,35.4955 22.5273,35.6621 20.5,35.5C 20.1667,34.8333 19.8333,34.1667 19.5,33.5C 19.5,33.1667 19.5,32.8333 19.5,32.5 Z"></path></g>
<g><path style="opacity: 1" fill="#0e71c0" d="M 27.5,33.5 C 28.791,33.2627 29.791,33.596 30.5,34.5C 27.1667,37.1667 24.1667,40.1667 21.5,43.5C 19.1667,43.5 16.8333,43.5 14.5,43.5C 16.9092,41.0976 18.9092,38.4309 20.5,35.5C 22.5273,35.6621 24.5273,35.4955 26.5,35C 27.056,34.6174 27.3893,34.1174 27.5,33.5 Z"></path></g>
<g><path style="opacity: .944" fill="#0061b3" d="M 30.5,34.5 C 31.5,34.5 32.5,34.5 33.5,34.5C 36.0762,36.8875 37.0762,39.8875 36.5,43.5C 31.5,43.5 26.5,43.5 21.5,43.5C 24.1667,40.1667 27.1667,37.1667 30.5,34.5 Z"></path></g>
</svg>
