<?xml version="1.0" encoding="UTF-8"?>
<!DOCTYPE svg PUBLIC "-//W3C//DTD SVG 1.1//EN" "http://www.w3.org/Graphics/SVG/1.1/DTD/svg11.dtd">
<svg xmlns="http://www.w3.org/2000/svg" version="1.1" width="50px" height="50px" style="shape-rendering:geometricPrecision; text-rendering:geometricPrecision; image-rendering:optimizeQuality; fill-rule:evenodd; clip-rule:evenodd" xmlns:xlink="http://www.w3.org/1999/xlink">
<g><path style="opacity:0.687" fill="#000000" d="M -0.5,32.5 C -0.5,27.1667 -0.5,21.8333 -0.5,16.5C 3.70753,9.88528 9.70753,7.71861 17.5,10C 23.5003,13.8441 25.8336,19.3441 24.5,26.5C 16.8261,26.3336 9.15943,26.5003 1.5,27C 4.93894,38.3908 11.2723,40.3908 20.5,33C 21.8333,32.3333 23.1667,32.3333 24.5,33C 20.4752,40.0879 14.4752,42.4212 6.5,40C 3.25432,38.2576 0.920984,35.7576 -0.5,32.5 Z M 7.5,12.5 C 16.1766,11.1788 21.1766,14.8455 22.5,23.5C 15.5,24.8333 8.5,24.8333 1.5,23.5C 2.20893,19.0787 4.20893,15.4121 7.5,12.5 Z"/></g>
<g><path style="opacity:0.601" fill="#000000" d="M 49.5,10.5 C 49.5,10.8333 49.5,11.1667 49.5,11.5C 46.0156,15.8278 42.6823,20.3278 39.5,25C 42.3036,29.6319 45.6369,33.7986 49.5,37.5C 49.5,38.1667 49.5,38.8333 49.5,39.5C 48.1266,39.6567 46.7932,39.49 45.5,39C 42.7886,35.0776 39.9553,31.2443 37,27.5C 34.0447,31.2443 31.2114,35.0776 28.5,39C 27.0563,39.7805 25.723,39.6139 24.5,38.5C 28.0405,34.1301 31.3738,29.6301 34.5,25C 31.1813,20.344 27.848,15.6773 24.5,11C 25.8333,10.3333 27.1667,10.3333 28.5,11C 31.6993,14.5662 34.5326,18.3996 37,22.5C 39.4674,18.3996 42.3007,14.5662 45.5,11C 46.7932,10.51 48.1266,10.3433 49.5,10.5 Z"/></g>
</svg>
