<?xml version="1.0" encoding="UTF-8"?>
<!DOCTYPE svg PUBLIC "-//W3C//DTD SVG 1.1//EN" "http://www.w3.org/Graphics/SVG/1.1/DTD/svg11.dtd">
<svg xmlns="http://www.w3.org/2000/svg" version="1.1" width="48px" height="48px" style="shape-rendering:geometricPrecision; text-rendering:geometricPrecision; image-rendering:optimizeQuality; fill-rule:evenodd; clip-rule:evenodd" xmlns:xlink="http://www.w3.org/1999/xlink">
<g><path style="opacity:1" fill="#4fa04c" d="M 13.5,3.5 C 20.175,3.33375 26.8417,3.50042 33.5,4C 36.4576,4.2293 38.9576,5.39597 41,7.5C 44.6842,23.021 39.8509,34.8543 26.5,43C 17.0462,42.4899 10.5462,37.6566 7,28.5C 4.88055,20.8653 5.04722,13.3653 7.5,6C 9.6115,5.15532 11.6115,4.32198 13.5,3.5 Z"/></g>
<g><path style="opacity:1" fill="#5c4237" d="M 15.5,6.5 C 23.226,6.10026 30.726,7.10026 38,9.5C 40.4045,22.3269 36.2378,32.1603 25.5,39C 23.3646,39.6347 21.3646,39.3014 19.5,38C 10.2931,30.6826 6.79308,21.1826 9,9.5C 11.166,8.26852 13.3326,7.26852 15.5,6.5 Z"/></g>
<g><path style="opacity:1" fill="#7ec17f" d="M 24.5,10.5 C 23.1901,17.4012 23.1901,24.4012 24.5,31.5C 23.5084,31.3284 22.8417,31.6618 22.5,32.5C 16.8974,26.9328 16.0641,20.5995 20,13.5C 20.956,12.4214 21.7894,11.2547 22.5,10C 23.4368,9.30831 24.1034,9.47498 24.5,10.5 Z"/></g>
<g><path style="opacity:1" fill="#4dab4f" d="M 24.5,10.5 C 31.1487,17.9182 31.1487,25.2515 24.5,32.5C 24.5,32.1667 24.5,31.8333 24.5,31.5C 23.1901,24.4012 23.1901,17.4012 24.5,10.5 Z"/></g>
<g><path style="opacity:1" fill="#d6eac3" d="M 24.5,31.5 C 24.5,31.8333 24.5,32.1667 24.5,32.5C 23.8333,36.5 23.1667,36.5 22.5,32.5C 22.8417,31.6618 23.5084,31.3284 24.5,31.5 Z"/></g>
</svg>
